SP02DB_Demarrage_Synchrone_04.mot
version=1
nRows=32
nColumns=19
inDegrees=yes
endheader
time	rhf_vx	rhf_vy	rhf_vz	rhf_px	rhf_py	rhf_pz	rhtorque_x	rhtorque_y	rhtorque_z	lhf_vx	lhf_vy	lhf_vz	lhf_px	lhf_py	lhf_pz	lhtorque_x	lhtorque_y	lhtorque_z
0.0100	-1.707771	0.234796	1.015378	-0.000000	-0.000000	-0.000000	0.172546	-0.285655	-0.249241	3.201523	9.144532	5.880168	-0.000000	-0.000000	-0.000000	2.928035	-1.185816	-0.579970	
0.0200	-2.862906	1.291422	0.247051	-0.000000	-0.000000	-0.000000	-0.300751	-0.592754	0.158311	0.559385	10.213644	6.050256	-0.000000	-0.000000	-0.000000	3.483790	-0.250469	0.178443	
0.0300	-4.135355	2.600367	-0.710088	-0.000000	-0.000000	-0.000000	-0.933442	-0.940683	0.538131	-1.874476	10.842818	5.948544	-0.000000	-0.000000	-0.000000	3.671004	0.661637	1.070081	
0.0400	-5.742372	4.080903	-1.426349	-0.000000	-0.000000	-0.000000	-1.569745	-1.370330	0.977532	-4.630179	11.388856	5.421624	-0.000000	-0.000000	-0.000000	3.866118	1.659943	1.897266	
0.0500	-7.322141	5.495197	-1.808881	-0.000000	-0.000000	-0.000000	-2.124684	-1.796450	1.487718	-6.851023	11.874420	5.779662	-0.000000	-0.000000	-0.000000	4.109785	2.451711	2.690587	
0.0600	-9.161304	6.937790	-2.363069	-0.000000	-0.000000	-0.000000	-2.690508	-2.307309	2.008189	-8.971299	12.325762	6.259732	-0.000000	-0.000000	-0.000000	4.403981	3.201153	3.376454	
0.0700	-11.024874	8.378130	-2.911037	-0.000000	-0.000000	-0.000000	-3.246437	-2.833137	2.531829	-10.840321	12.645154	6.871414	-0.000000	-0.000000	-0.000000	4.668702	3.854921	4.007492	
0.0800	-12.799317	9.676746	-3.395688	-0.000000	-0.000000	-0.000000	-3.744318	-3.336777	3.058394	-12.516410	12.868699	7.652378	-0.000000	-0.000000	-0.000000	4.931584	4.431835	4.556558	
0.0900	-14.403825	10.780184	-3.859563	-0.000000	-0.000000	-0.000000	-4.175017	-3.795728	3.565464	-13.979472	13.041024	8.567385	-0.000000	-0.000000	-0.000000	5.192179	4.924630	5.044279	
0.1000	-15.846259	11.669709	-4.355094	-0.000000	-0.000000	-0.000000	-4.549167	-4.216275	4.041143	-15.250177	13.073634	9.455880	-0.000000	-0.000000	-0.000000	5.391125	5.354216	5.485974	
0.1100	-17.092314	12.265032	-4.835463	-0.000000	-0.000000	-0.000000	-4.838216	-4.588603	4.499133	-16.264811	13.021975	10.316565	-0.000000	-0.000000	-0.000000	5.550450	5.688604	5.866220	
0.1200	-18.087950	12.533352	-5.289972	-0.000000	-0.000000	-0.000000	-5.035082	-4.889977	4.931063	-17.123421	12.838387	11.069489	-0.000000	-0.000000	-0.000000	5.642921	5.975054	6.203589	
0.1300	-18.828129	12.553761	-5.770944	-0.000000	-0.000000	-0.000000	-5.168304	-5.118617	5.319700	-17.864103	12.627097	11.587795	-0.000000	-0.000000	-0.000000	5.698029	6.222752	6.532746	
0.1400	-19.349088	12.366256	-6.274967	-0.000000	-0.000000	-0.000000	-5.252625	-5.287969	5.665414	-18.502110	12.401989	11.900288	-0.000000	-0.000000	-0.000000	5.721260	6.443870	6.848956	
0.1500	-19.750978	11.990980	-6.759220	-0.000000	-0.000000	-0.000000	-5.279733	-5.419374	5.996820	-19.072183	12.273857	12.048618	-0.000000	-0.000000	-0.000000	5.755204	6.634353	7.152377	
0.1600	-20.091192	11.527479	-7.210020	-0.000000	-0.000000	-0.000000	-5.278204	-5.525575	6.311171	-19.655380	12.234765	11.985363	-0.000000	-0.000000	-0.000000	5.789743	6.834004	7.449267	
0.1700	-20.438399	11.088567	-7.625669	-0.000000	-0.000000	-0.000000	-5.277189	-5.634105	6.614708	-20.214215	12.292000	11.832526	-0.000000	-0.000000	-0.000000	5.836664	7.019878	7.760792	
0.1800	-20.870204	10.727894	-7.991604	-0.000000	-0.000000	-0.000000	-5.288542	-5.766615	6.916870	-20.733343	12.381814	11.643839	-0.000000	-0.000000	-0.000000	5.883717	7.200530	8.068777	
0.1900	-21.366261	10.485096	-8.303560	-0.000000	-0.000000	-0.000000	-5.318686	-5.912814	7.223506	-21.292083	12.582360	11.430194	-0.000000	-0.000000	-0.000000	5.948324	7.389095	8.377928	
0.2000	-21.848943	10.366441	-8.578657	-0.000000	-0.000000	-0.000000	-5.369170	-6.056298	7.503309	-21.886761	12.881390	11.190777	-0.000000	-0.000000	-0.000000	6.036195	7.583714	8.683366	
0.2100	-22.313341	10.361400	-8.863352	-0.000000	-0.000000	-0.000000	-5.442948	-6.196245	7.758180	-22.485035	13.242560	10.984016	-0.000000	-0.000000	-0.000000	6.136206	7.770421	8.997206	
0.2200	-22.754028	10.413961	-9.132905	-0.000000	-0.000000	-0.000000	-5.526694	-6.324165	7.989239	-23.134053	13.660459	10.754725	-0.000000	-0.000000	-0.000000	6.247806	7.968220	9.292925	
0.2300	-23.146869	10.479791	-9.397608	-0.000000	-0.000000	-0.000000	-5.610576	-6.433352	8.198356	-23.792448	14.106320	10.584420	-0.000000	-0.000000	-0.000000	6.353587	8.162323	9.587793	
0.2400	-23.472403	10.542372	-9.673782	-0.000000	-0.000000	-0.000000	-5.690158	-6.519927	8.379700	-24.442622	14.538501	10.495746	-0.000000	-0.000000	-0.000000	6.445952	8.347500	9.860945	
0.2500	-23.767037	10.612414	-9.960469	-0.000000	-0.000000	-0.000000	-5.773115	-6.593846	8.542651	-25.122217	14.902483	10.483958	-0.000000	-0.000000	-0.000000	6.516330	8.541049	10.113830	
0.2600	-24.057173	10.691999	-10.243569	-0.000000	-0.000000	-0.000000	-5.856273	-6.657606	8.689423	-25.836167	15.251042	10.489911	-0.000000	-0.000000	-0.000000	6.577464	8.742392	10.352927	
0.2700	-24.355608	10.799310	-10.526035	-0.000000	-0.000000	-0.000000	-5.939820	-6.719134	8.831576	-26.584600	15.588098	10.493067	-0.000000	-0.000000	-0.000000	6.628609	8.942011	10.582020	
0.2800	-24.665448	10.926909	-10.798767	-0.000000	-0.000000	-0.000000	-6.027438	-6.783282	8.962310	-27.357744	15.920942	10.418621	-0.000000	-0.000000	-0.000000	6.685537	9.135423	10.786595	
0.2900	-25.007193	11.097880	-11.086872	-0.000000	-0.000000	-0.000000	-6.129202	-6.851783	9.087087	-28.122612	16.173771	10.339066	-0.000000	-0.000000	-0.000000	6.736946	9.331134	10.986381	
0.3000	-25.377415	11.338968	-11.349443	-0.000000	-0.000000	-0.000000	-6.256348	-6.921128	9.214592	-28.862324	16.507361	10.220492	-0.000000	-0.000000	-0.000000	6.832009	9.515576	11.182323	
0.3100	-25.779480	11.654846	-11.628670	-0.000000	-0.000000	-0.000000	-6.409219	-7.001075	9.342348	-29.559017	16.876912	10.173265	-0.000000	-0.000000	-0.000000	6.941944	9.692037	11.362108	
0.3200	-26.214032	12.024506	-11.921324	-0.000000	-0.000000	-0.000000	-6.580200	-7.093754	9.465968	-30.241859	17.326185	10.129948	-0.000000	-0.000000	-0.000000	7.091315	9.866026	11.517288	
